<?xml version="1.0" standalone="no"?>
<!DOCTYPE svg PUBLIC "-//W3C//DTD SVG 20010904//EN"
 "http://www.w3.org/TR/2001/REC-SVG-20010904/DTD/svg10.dtd">
<svg version="1.0" xmlns="http://www.w3.org/2000/svg"
 width="512.000000pt" height="512.000000pt" viewBox="0 0 512.000000 512.000000"
 preserveAspectRatio="xMidYMid meet">
<metadata>
Created by potrace 1.14, written by Peter Selinger 2001-2017
</metadata>
<g transform="translate(0.000000,512.000000) scale(0.100000,-0.100000)"
fill="#000000" stroke="none">
<path d="M1650 4941 c0 -3 -41 -6 -90 -5 -50 0 -90 -2 -90 -5 0 -3 -12 -6 -27
-7 -42 -1 -123 -13 -168 -25 -22 -6 -47 -11 -55 -11 -8 0 -21 -5 -27 -11 -7
-5 -13 -7 -13 -3 0 3 -16 0 -35 -8 -19 -8 -35 -13 -35 -11 0 2 -15 -2 -34 -10
-18 -8 -36 -11 -40 -8 -3 4 -6 2 -6 -4 0 -6 -11 -14 -25 -17 -44 -11 -157 -66
-245 -119 -141 -85 -290 -214 -388 -336 -20 -25 -39 -48 -43 -51 -3 -3 -20
-29 -39 -57 -18 -29 -37 -53 -42 -53 -5 0 -7 -4 -3 -9 3 -5 -2 -16 -10 -24 -8
-9 -15 -22 -15 -30 0 -9 -4 -17 -8 -19 -10 -3 -82 -154 -82 -169 0 -5 -4 -17
-9 -27 -14 -27 -39 -94 -47 -127 -4 -16 -9 -34 -10 -40 -12 -36 -45 -209 -52
-264 -9 -85 -8 -411 2 -476 4 -27 10 -68 12 -90 3 -22 11 -65 19 -95 7 -30 16
-68 18 -85 8 -47 31 -125 37 -125 3 0 7 -12 8 -26 1 -14 5 -31 9 -37 4 -7 8
-18 9 -26 4 -20 43 -116 82 -201 20 -41 36 -77 36 -80 1 -3 4 -9 7 -15 4 -5
21 -37 39 -70 43 -80 171 -272 210 -313 16 -18 30 -36 30 -40 0 -4 50 -59 110
-122 61 -62 110 -111 110 -109 0 3 26 -18 57 -48 32 -29 63 -53 70 -53 7 0 13
-4 13 -9 0 -11 164 -117 248 -160 82 -42 259 -111 266 -103 3 3 6 1 6 -4 0 -5
14 -10 31 -11 17 -1 37 -8 45 -14 8 -6 14 -9 14 -7 0 3 19 2 43 -3 154 -30
439 -32 567 -4 14 3 41 8 60 12 48 10 50 10 53 13 1 1 11 4 22 5 11 2 103 31
205 65 102 34 194 64 204 66 10 2 33 8 50 13 70 20 184 44 231 47 100 6 226
-45 339 -136 150 -121 452 -434 500 -519 5 -9 12 -18 15 -21 13 -11 81 -99 81
-104 0 -5 8 -15 53 -68 9 -12 17 -24 17 -27 0 -3 14 -22 31 -41 17 -19 37 -47
45 -63 8 -15 18 -27 23 -27 4 0 13 -10 18 -23 6 -12 18 -31 27 -42 54 -67 84
-113 79 -119 -4 -3 0 -6 8 -6 8 0 25 -19 39 -40 34 -56 97 -120 133 -135 38
-16 87 -5 135 29 40 28 252 236 357 348 36 39 74 87 83 107 16 33 17 45 13 96
-1 17 -69 88 -120 125 -19 14 -40 31 -47 38 -7 6 -17 12 -22 12 -6 0 -12 4
-14 8 -1 5 -41 36 -88 70 -47 34 -94 69 -105 77 -11 9 -32 24 -47 33 -16 9
-28 20 -28 24 0 4 -7 8 -15 8 -8 0 -15 4 -15 8 0 4 -14 16 -30 26 -17 9 -42
29 -55 42 -14 14 -25 21 -25 17 0 -4 -4 -3 -8 3 -4 5 -25 23 -47 40 -70 52
-210 166 -236 193 -9 9 -34 33 -55 53 -21 20 -44 43 -50 50 -6 7 -24 25 -40
39 -85 76 -237 252 -227 263 3 3 2 6 -3 6 -5 0 -18 17 -29 37 -11 21 -22 40
-25 43 -27 26 -59 214 -41 245 3 6 6 15 6 20 4 37 19 95 25 95 3 0 6 10 5 22
-1 12 11 62 26 110 15 48 25 88 22 88 -3 0 0 6 6 13 6 8 8 17 4 20 -3 4 -2 7
3 7 10 0 45 86 43 104 0 5 4 12 9 15 6 3 12 17 13 31 2 14 7 27 10 30 11 8 50
171 44 181 -4 5 -1 9 6 9 7 0 10 3 7 6 -4 3 -2 19 2 36 9 30 19 133 24 238 3
69 -15 285 -24 285 -1 0 -3 11 -5 25 -6 41 -15 82 -24 99 -5 9 -6 22 -4 29 3
6 0 12 -6 12 -5 0 -9 8 -9 18 0 9 -5 31 -12 47 -7 17 -13 33 -12 38 1 4 -2 7
-6 7 -5 0 -9 6 -9 13 0 15 -70 161 -109 227 -59 101 -169 245 -246 323 -21 21
-38 40 -38 43 0 2 -23 25 -51 51 -29 27 -67 63 -86 81 -19 17 -37 32 -40 32
-2 0 -10 6 -17 13 -7 6 -28 23 -46 37 -18 14 -39 31 -46 38 -7 6 -17 12 -22
12 -5 0 -17 9 -27 20 -10 11 -23 20 -30 20 -7 0 -20 9 -30 20 -10 11 -22 20
-27 20 -5 0 -28 13 -51 28 -51 34 -282 148 -320 157 -15 4 -27 11 -27 16 0 5
-6 6 -14 3 -8 -3 -17 -1 -21 5 -3 6 -14 11 -23 11 -10 0 -34 8 -55 19 -20 10
-34 14 -30 7 5 -8 3 -8 -8 1 -8 6 -28 13 -45 16 -17 3 -40 10 -51 16 -11 5
-23 8 -26 4 -4 -3 -12 -1 -19 4 -7 6 -21 9 -30 8 -10 -2 -18 0 -18 4 0 4 -10
7 -22 6 -13 -1 -27 0 -33 4 -11 6 -26 9 -75 15 -19 2 -35 5 -35 6 0 3 -52 8
-107 12 -27 1 -48 6 -48 11 0 5 -6 4 -14 -2 -7 -6 -20 -9 -27 -6 -22 7 -139
13 -139 6z"/>
<path d="M4438 4695 c-2 -2 -19 -6 -38 -9 -69 -11 -175 -55 -217 -89 -50 -42
-115 -117 -134 -156 -13 -25 -26 -48 -29 -51 -3 -3 -7 -12 -8 -20 -2 -8 -6
-22 -8 -30 -2 -8 -7 -31 -12 -51 -11 -45 -5 -224 8 -224 1 0 4 -11 6 -25 2
-13 9 -27 15 -31 6 -3 10 -9 9 -13 -4 -12 22 -66 31 -66 5 0 9 -5 9 -11 0 -16
47 -69 54 -62 3 4 6 -1 6 -10 0 -9 7 -17 16 -17 8 0 12 -4 9 -10 -3 -5 1 -10
9 -10 9 0 16 -4 16 -9 0 -13 106 -66 168 -84 28 -9 52 -14 52 -11 0 3 9 0 20
-6 14 -8 20 -8 20 0 0 6 5 8 12 4 12 -8 73 -6 112 3 12 2 33 6 47 7 14 2 52
17 84 34 32 18 62 32 66 32 4 0 9 4 11 8 2 4 20 21 41 36 21 16 35 31 33 34
-3 2 5 13 18 23 13 10 29 32 36 49 7 16 16 30 21 30 5 0 8 3 7 8 -1 4 6 24 15
45 9 21 16 41 15 45 -1 4 3 23 9 43 10 34 10 163 0 199 -3 8 -8 30 -12 48 -4
17 -12 32 -17 32 -5 0 -7 3 -5 8 12 18 -104 182 -129 182 -7 0 -14 6 -17 14
-14 36 -161 96 -252 103 -33 2 -68 6 -77 7 -9 2 -18 2 -20 1z"/>
</g>
</svg>
